<svg width="190" height="32" viewBox="0 0 190 32" fill="none" xmlns="http://www.w3.org/2000/svg">
<path d="M70.6269 11.1256H59.4352V14.4256H67.3938C66.9959 19.0756 63.1161 21.1256 59.485 21.1256C54.8093 21.1256 50.7306 17.4256 50.7306 12.2756C50.7306 7.22559 54.6104 3.32559 59.485 3.32559C63.2653 3.32559 65.4539 5.72559 65.4539 5.72559L67.742 3.32559C67.742 3.32559 64.7575 0.0255868 59.3358 0.0255868C52.4218 -0.0244132 47.0995 5.82559 47.0995 12.1756C47.0995 18.3756 52.1233 24.4256 59.5347 24.4256C66.0508 24.4256 70.8259 19.9756 70.8259 13.3256C70.8259 11.9256 70.6269 11.1256 70.6269 11.1256V11.1256Z" fill="white"/>
<path fill-rule="evenodd" clip-rule="evenodd" d="M71.8705 16.4756C71.8705 12.2756 75.1534 8.6756 79.7296 8.6756C83.5099 8.6756 87.5886 11.3756 87.6384 16.5756C87.6384 21.1756 84.1565 24.4256 79.829 24.4256C75.0539 24.4256 71.8705 20.7756 71.8705 16.4756ZM84.1565 16.5756C84.1565 13.6756 82.0176 11.8256 79.7793 11.8256C77.2425 11.8256 75.3026 13.8256 75.3523 16.5256C75.3523 19.3256 77.2922 21.3256 79.7793 21.3256C82.0674 21.3256 84.1565 19.4756 84.1565 16.5756Z" fill="white"/>
<path fill-rule="evenodd" clip-rule="evenodd" d="M88.9814 16.4756C88.9814 12.2756 92.2643 8.6756 96.8404 8.6756C100.621 8.6756 104.699 11.3756 104.749 16.5756C104.749 21.1756 101.267 24.4256 96.9399 24.4256C92.1648 24.4256 88.9814 20.7756 88.9814 16.4756ZM101.267 16.5756C101.267 13.6756 99.1285 11.8256 96.8902 11.8256C94.3534 11.8256 92.4135 13.8256 92.4632 16.5256C92.4632 19.3256 94.4031 21.3256 96.8902 21.3256C99.1782 21.3256 101.267 19.4756 101.267 16.5756Z" fill="white"/>
<path fill-rule="evenodd" clip-rule="evenodd" d="M106.092 16.5756C106.092 12.4256 109.375 8.72559 113.603 8.72559C115.444 8.72559 116.836 9.42559 117.732 10.5256V9.17559H121.015V23.3256C121.015 28.8756 117.831 31.5256 113.653 31.5256C109.823 31.5256 107.684 29.1756 106.639 26.9256L109.674 25.6756C110.121 26.6756 111.315 28.4756 113.703 28.4756C116.19 28.4756 117.831 26.8256 117.831 24.1256V22.5756C116.886 23.6256 115.742 24.4756 113.504 24.4756C109.922 24.4756 106.092 21.2756 106.092 16.5756ZM118.08 16.6256C118.08 13.6256 115.941 11.8256 113.902 11.8256C111.713 11.8256 109.574 13.5756 109.524 16.6756C109.524 19.5256 111.613 21.3756 113.852 21.3756C115.991 21.3756 118.08 19.7256 118.08 16.6256Z" fill="white"/>
<path fill-rule="evenodd" clip-rule="evenodd" d="M128.426 16.5256C128.426 11.8256 131.759 8.6756 135.738 8.6756C138.822 8.6756 141.16 10.7756 142.204 13.1756L142.751 14.4756L132.256 18.8756C132.903 20.0756 133.897 21.2756 136.086 21.2756C138.026 21.2756 139.22 20.2256 139.916 19.1256L142.652 20.9756C141.458 22.5756 139.369 24.4256 136.086 24.4256C132.156 24.4256 128.426 21.4756 128.426 16.5256ZM138.772 13.4256C138.275 12.4756 137.28 11.7256 135.837 11.7256C133.599 11.7256 131.41 14.0756 131.808 16.3756L138.772 13.4256Z" fill="white"/>
<path d="M123.452 23.9756H126.884V0.775574H123.452V23.9756Z" fill="white"/>
</svg>
