<svg width="190" height="32" viewBox="0 0 190 32" fill="none" xmlns="http://www.w3.org/2000/svg">
<path d="M62.0448 6.73257V18.014C62.0448 21.7744 60.4209 23.3372 56.6 23.3372C52.7791 23.3372 51.1552 21.7744 51.1552 18.014V6.2442H47.4776C47.1433 6.2442 47 6.39071 47 6.73257V18.1605C47 24.4605 50.9164 26.6582 56.6 26.6582C62.2836 26.6582 66.2 24.4605 66.2 18.1605V6.2442H62.5224C62.2358 6.2442 62.0448 6.39071 62.0448 6.73257" fill="white"/>
<path d="M115.394 9.51629C115.681 9.51629 115.824 9.41862 115.919 9.17443L116.97 6.48839C117.018 6.34188 116.97 6.2442 116.827 6.2442H102.021C100.636 6.2442 100.11 6.68374 100.11 7.66048V25.1442C100.11 25.9744 100.493 26.3163 101.591 26.3163H115.394C115.681 26.3163 115.824 26.2186 115.919 25.9744L116.97 23.2884C117.018 23.1419 116.97 23.0442 116.827 23.0442H104.17V19.4791C104.17 18.2582 104.839 17.6721 106.606 17.6721H112.099C112.385 17.6721 112.528 17.5744 112.624 17.3302L113.627 14.7419C113.675 14.5954 113.627 14.4977 113.484 14.4977H104.122V9.51629H115.394" fill="white"/>
<path fill-rule="evenodd" clip-rule="evenodd" d="M91.609 11.3233C91.609 13.2279 90.9403 14.8396 89.3164 15.7186C91.5134 16.3535 92.5164 18.3558 92.4687 20.7489C92.4687 24.7535 89.6985 26.3163 85.8299 26.3163H75.5612C74.4627 26.3163 74.0806 25.9744 74.0806 25.1442V7.66048C74.0806 6.68374 74.606 6.2442 75.991 6.2442H84.397C88.0746 6.2442 91.609 6.87909 91.609 11.3233ZM78.1881 9.46746H84.6836C86.8328 9.46746 87.4537 10.2977 87.4537 12.0558C87.4537 13.7651 86.8328 14.6442 84.6836 14.6442H78.1881V9.46746ZM85.4478 23.093H78.1881V19.4302C78.1881 18.2093 78.8567 17.6233 80.6239 17.6233H85.4478C87.7403 17.6233 88.409 18.5512 88.409 20.3582C88.409 22.214 87.7403 23.093 85.4478 23.093Z" fill="white"/>
<path fill-rule="evenodd" clip-rule="evenodd" d="M138.272 18.2582L142.666 25.9744C142.761 26.0721 142.761 26.3163 142.427 26.3163H138.701C138.426 26.3163 138.327 26.181 138.193 25.997C138.187 25.9895 138.182 25.982 138.176 25.9744L134.212 18.6489H130.582C128.815 18.6489 128.146 19.2349 128.146 20.4558V26.3163H124.564C124.23 26.3163 124.087 26.1698 124.087 25.8279V7.66048C124.087 6.68374 124.612 6.2442 125.997 6.2442H134.403C139.275 6.2442 142.236 7.56281 142.236 12.4465C142.236 16.207 140.469 17.6721 138.272 18.2582ZM128.146 15.5721H134.976C137.555 15.5721 138.081 14.5465 138.081 12.4954C138.081 10.493 137.507 9.46746 134.976 9.46746H128.146V15.5721Z" fill="white"/>
</svg>
