<svg width="190" height="33" viewBox="0 0 190 33" fill="none" xmlns="http://www.w3.org/2000/svg">
<path d="M70.6269 12.1255H59.4352V15.4255H67.3938C66.9959 20.0755 63.1161 22.1255 59.485 22.1255C54.8093 22.1255 50.7306 18.4255 50.7306 13.2755C50.7306 8.22553 54.6104 4.32553 59.485 4.32553C63.2653 4.32553 65.4539 6.72553 65.4539 6.72553L67.742 4.32553C67.742 4.32553 64.7575 1.02553 59.3358 1.02553C52.4218 0.975526 47.0995 6.82553 47.0995 13.1755C47.0995 19.3755 52.1233 25.4255 59.5347 25.4255C66.0508 25.4255 70.8259 20.9755 70.8259 14.3255C70.8259 12.9255 70.6269 12.1255 70.6269 12.1255V12.1255Z" fill="white"/>
<path fill-rule="evenodd" clip-rule="evenodd" d="M71.8705 17.4755C71.8705 13.2755 75.1534 9.67554 79.7295 9.67554C83.5098 9.67554 87.5886 12.3755 87.6383 17.5755C87.6383 22.1755 84.1565 25.4255 79.829 25.4255C75.0539 25.4255 71.8705 21.7755 71.8705 17.4755ZM84.1565 17.5755C84.1565 14.6755 82.0176 12.8255 79.7793 12.8255C77.2425 12.8255 75.3026 14.8255 75.3523 17.5255C75.3523 20.3255 77.2922 22.3255 79.7793 22.3255C82.0674 22.3255 84.1565 20.4755 84.1565 17.5755Z" fill="white"/>
<path fill-rule="evenodd" clip-rule="evenodd" d="M88.9813 17.4755C88.9813 13.2755 92.2642 9.67554 96.8404 9.67554C100.621 9.67554 104.699 12.3755 104.749 17.5755C104.749 22.1755 101.267 25.4255 96.9399 25.4255C92.1648 25.4255 88.9813 21.7755 88.9813 17.4755ZM101.267 17.5755C101.267 14.6755 99.1285 12.8255 96.8902 12.8255C94.3534 12.8255 92.4135 14.8255 92.4632 17.5255C92.4632 20.3255 94.4031 22.3255 96.8902 22.3255C99.1782 22.3255 101.267 20.4755 101.267 17.5755Z" fill="white"/>
<path fill-rule="evenodd" clip-rule="evenodd" d="M106.092 17.5755C106.092 13.4255 109.375 9.72552 113.603 9.72552C115.444 9.72552 116.836 10.4255 117.732 11.5255V10.1755H121.015V24.3255C121.015 29.8755 117.831 32.5255 113.653 32.5255C109.823 32.5255 107.684 30.1755 106.639 27.9255L109.674 26.6755C110.121 27.6755 111.315 29.4755 113.703 29.4755C116.19 29.4755 117.831 27.8255 117.831 25.1255V23.5755C116.886 24.6255 115.742 25.4755 113.504 25.4755C109.922 25.4755 106.092 22.2755 106.092 17.5755ZM118.08 17.6255C118.08 14.6255 115.941 12.8255 113.902 12.8255C111.713 12.8255 109.574 14.5755 109.524 17.6755C109.524 20.5255 111.613 22.3755 113.852 22.3755C115.991 22.3755 118.08 20.7255 118.08 17.6255Z" fill="white"/>
<path fill-rule="evenodd" clip-rule="evenodd" d="M128.426 17.5255C128.426 12.8255 131.759 9.67554 135.738 9.67554C138.822 9.67554 141.16 11.7755 142.204 14.1755L142.751 15.4755L132.256 19.8755C132.903 21.0755 133.897 22.2755 136.086 22.2755C138.026 22.2755 139.22 21.2255 139.916 20.1255L142.652 21.9755C141.458 23.5755 139.369 25.4255 136.086 25.4255C132.156 25.4255 128.426 22.4755 128.426 17.5255ZM138.772 14.4255C138.275 13.4755 137.28 12.7255 135.837 12.7255C133.599 12.7255 131.41 15.0755 131.808 17.3755L138.772 14.4255Z" fill="white"/>
<path d="M123.452 24.9755H126.884V1.77551H123.452V24.9755Z" fill="white"/>
</svg>
