<svg width="15" height="14" viewBox="0 0 15 14" fill="none" xmlns="http://www.w3.org/2000/svg">
<path d="M6.22322 1.09375C5.91072 1.40625 5.94197 1.875 6.22322 2.1875L10.0045 5.75H1.03572C0.598221 5.75 0.285721 6.09375 0.285721 6.5V7.5C0.285721 7.9375 0.598221 8.25 1.03572 8.25H10.0045L6.22322 11.8438C5.94197 12.1562 5.94197 12.625 6.22322 12.9375L6.91072 13.625C7.22322 13.9062 7.69197 13.9062 7.97322 13.625L14.067 7.53125C14.3482 7.25 14.3482 6.78125 14.067 6.46875L7.97322 0.40625C7.69197 0.125 7.22322 0.125 6.91072 0.40625L6.22322 1.09375Z" fill="#5A7184"/>
</svg>
